<svg xmlns="http://www.w3.org/2000/svg" viewBox="0 0 84 84" width="84pt" height="84pt" preserveAspectRatio="xMidYMid meet">
    <g transform="translate(0,84) scale(0.1,-0.1)" stroke="none">
        <path d="M386 769 c-72 -23 -83 -32 -95 -76 -10 -34 7 -187 30 -276 11 -43 59
    -101 100 -123 64 -33 159 -3 204 64 34 51 46 118 48 268 l2 128 -100 17 c-123
    22 -117 22 -189 -2z m207 -25 l57 -7 0 -72 0 -72 -42 21 c-33 16 -67 22 -148
    24 l-105 4 -16 -33 -16 -34 -7 48 c-10 67 7 96 69 118 50 18 64 19 208 3z
    m-30 -146 c37 -8 51 -17 62 -39 22 -41 18 -97 -10 -156 -44 -96 -140 -123
    -211 -61 -46 40 -64 82 -64 148 0 66 21 117 52 123 29 6 109 -1 171 -15z" />
        <path d="M174 654 c-60 -21 -68 -46 -50 -163 16 -107 34 -139 92 -160 34 -12
    44 -12 69 0 37 18 48 46 14 34 -85 -28 -139 10 -139 98 0 72 8 81 64 75 26 -3
    49 -2 52 3 9 15 -49 31 -93 26 -35 -4 -43 -1 -43 12 0 9 4 21 8 26 11 16 60
    35 88 35 16 0 24 5 22 13 -6 17 -37 18 -84 1z" />
        <path d="M140 325 c-7 -8 -30 -20 -51 -25 -60 -16 -86 -54 -77 -111 3 -22 8
    -24 56 -24 63 0 75 19 15 23 -34 3 -43 7 -43 22 0 35 12 50 52 60 36 10 41 9
    59 -15 26 -32 46 -22 24 12 -25 37 -14 46 24 19 49 -36 62 -19 16 21 -43 37
    -57 40 -75 18z" />
        <path d="M334 286 c-11 -18 -31 -28 -69 -36 -67 -14 -101 -40 -115 -88 -14
    -53 -13 -69 10 -92 19 -19 33 -20 323 -20 355 0 352 -1 345 82 -7 67 -42 103
    -116 119 -38 7 -62 19 -75 35 -10 13 -22 24 -27 24 -5 0 -34 -22 -66 -49 l-58
    -49 -56 49 c-31 27 -62 49 -68 49 -6 0 -19 -11 -28 -24z m116 -81 c11 -13 10
    -19 -5 -35 -10 -11 -21 -20 -24 -20 -15 1 -71 98 -65 114 5 14 11 12 44 -14
    20 -16 43 -36 50 -45z m144 -4 l-38 -51 -23 22 -23 22 47 42 c40 35 50 40 62
    29 11 -11 7 -21 -25 -64z m-225 -31 c45 -63 50 -67 69 -48 9 9 12 9 12 -3 -1
    -36 -14 -40 -146 -37 l-129 3 -3 27 c-3 28 19 81 40 94 14 9 66 22 94 23 15 1
    33 -16 63 -59z m353 50 c50 -14 80 -54 76 -99 l-3 -36 -131 -3 -132 -3 -4 26
    c-6 27 1 32 20 13 6 -6 13 -10 15 -7 88 124 92 127 159 109z m-222 -65 c0 -8
    -7 -15 -15 -15 -16 0 -20 12 -8 23 11 12 23 8 23 -8z m0 -60 c0 -8 -7 -15 -15
    -15 -16 0 -20 12 -8 23 11 12 23 8 23 -8z" />
    </g>
</svg>